<svg width="50" height="50" viewBox="0 0 50 50" fill="none" xmlns="http://www.w3.org/2000/svg">
<path d="M45.8147 18.3827C47.0786 19.0212 48.1359 19.9744 48.8732 21.1401C49.6105 22.3058 50 23.6401 50 25C50 26.3599 49.6105 27.6942 48.8732 28.8599C48.1359 30.0256 47.0786 30.9788 45.8147 31.6173L12.0978 49.0343C6.66864 51.8417 0 48.1918 0 42.4195V7.58304C0 1.80822 6.66864 -1.83918 12.0978 0.96324L45.8147 18.3827Z" fill="#F24E1E"/>
<path d="M29 16.0356C29 15.6463 28.8959 15.2651 28.6999 14.9373C28.5038 14.6095 28.2242 14.3489 27.8941 14.1862C27.564 14.0235 27.1972 13.9657 26.8374 14.0196C26.4775 14.0735 26.1396 14.2368 25.8638 14.4902L19.0705 20.731C19.0398 20.7591 19.0008 20.7748 18.9604 20.7753C18.92 20.7759 18.8808 20.7612 18.8494 20.7339L12.0906 14.9017C11.8114 14.661 11.4743 14.5098 11.1183 14.4656C10.7623 14.4214 10.4019 14.486 10.0787 14.652C9.75554 14.8179 9.48275 15.0784 9.29187 15.4034C9.10099 15.7284 8.99981 16.1046 9 16.4886V31.9632C9 32.2305 9.04914 32.4951 9.14461 32.7421C9.24007 32.989 9.38001 33.2134 9.55641 33.4024C9.73281 33.5914 9.94223 33.7413 10.1727 33.8436C10.4032 33.9459 10.6502 33.9985 10.8997 33.9985C11.1492 33.9985 11.3962 33.9459 11.6267 33.8436C11.8572 33.7413 12.0666 33.5914 12.243 33.4024C12.4194 33.2134 12.5593 32.989 12.6548 32.7421C12.7503 32.4951 12.7994 32.2305 12.7994 31.9632V21.1277C12.7994 20.9723 12.9666 20.8849 13.0799 20.9826L17.8077 25.0622C18.1531 25.3601 18.5848 25.5192 19.0282 25.5119C19.4715 25.5046 19.8985 25.3314 20.2351 25.0222L24.916 20.7221C24.9411 20.6992 24.9718 20.6845 25.0044 20.6797C25.0371 20.6749 25.0703 20.6802 25.1002 20.695C25.1302 20.7098 25.1555 20.7334 25.1733 20.7631C25.1911 20.7929 25.2006 20.8274 25.2006 20.8627V31.9646C25.2006 32.5045 25.4008 33.0222 25.757 33.4039C26.1133 33.7856 26.5965 34 27.1003 34C27.6041 34 28.0873 33.7856 28.4436 33.4039C28.7999 33.0222 29 32.5045 29 31.9646V16.0356Z" fill="white"/>
</svg>
